# xmcd
#
# Track frame offsets: 
#        150
#        13205
#        25865
#        38569
#        51958
#        63043
#        73990
#        86496
#        98601
#        111492
#        124463
#        136318
#        151291
#        164119
#        174594
#        187333
#        197780
#        210781
#        224062
#        236271
#
# Disc length: 3312 seconds
#
# Revision: 1
# Processed by: cddbd v1.5.2PL0 Copyright (c) Steve Scherf et al.
# Submitted via: ExactAudioCopyFreeDBPlugin 1.0
#
DISCID=270cee14
DTITLE=Percy Mayfield, Johnny Moore's Three Blazers - ABC Of The Blues
DTITLE=Various Artist - Vol. 28 Mayfield, Moore
DYEAR=2010
DGENRE=Blues
TTITLE0=Percy Mayfield - Please Send Me Someone To Love
TTITLE1=Percy Mayfield - Strange Things Happening
TTITLE2=Percy Mayfield - What A Fool I Was
TTITLE3=Percy Mayfield - Lost Love (Baby, Please)
TTITLE4=Percy Mayfield - Advice
TTITLE5=Percy Mayfield - Nightmare
TTITLE6=Percy Mayfield - You Don't Exist No More
TTITLE7=Percy Mayfield - Get Way Back
TTITLE8=Percy Mayfield - The River's Invitation
TTITLE9=Percy Mayfield - Life Is Suicide
TTITLE10=Johnny Moore's Three Blazers - Dragnet Blues
TTITLE11=Johnny Moore's Three Blazers - Saturday Night (Four Nights Dr
TTITLE11=unk)
TTITLE12=Johnny Moore's Three Blazers - Johnny, Johnny
TTITLE13=Johnny Moore's Three Blazers - Down In Texas
TTITLE14=Johnny Moore's Three Blazers - Be Cool
TTITLE15=Johnny Moore's Three Blazers - Playing Numbers
TTITLE16=Johnny Moore's Three Blazers - Crazy With The Blues
TTITLE17=Johnny Moore's Three Blazers - Nightmare Blues
TTITLE18=Johnny Moore's Three Blazers - Gee, It's Rough
TTITLE19=Johnny Moore's Three Blazers - I Don't Know, Yes I Know
EXTD=
EXTT0=
EXTT1=
EXTT2=
EXTT3=
EXTT4=
EXTT5=
EXTT6=
EXTT7=
EXTT8=
EXTT9=
EXTT10=
EXTT11=
EXTT12=
EXTT13=
EXTT14=
EXTT15=
EXTT16=
EXTT17=
EXTT18=
EXTT19=
PLAYORDER=
